<svg id="Layer_1" data-name="Layer 1" xmlns="http://www.w3.org/2000/svg" viewBox="0 0 423.46 233.03"><defs><style>.cls-1{fill:#414042;}.cls-2{fill:#ed1c24;}</style></defs><title>logo_fdio_header</title><path class="cls-1" d="M328.1,219.64c4.25,0,6.7,2.36,6.7,6.6s-2.45,6.6-6.7,6.6-6.6-2.26-6.6-6.6S323.86,219.64,328.1,219.64Z"/><path class="cls-1" d="M353.73,163.07c3.49,0,5.84,1.41,5.84,5.28s-2.35,5.37-5.84,5.37-6-1.41-6-5.37S350.13,163.07,353.73,163.07Zm-5,19.33h9.8v49.31h-9.8Z"/><path class="cls-1" d="M397.06,181.08c15.46,0,26.4,11.12,26.4,26.11,0,14.81-10.94,25.84-26.4,25.84-15.28,0-26.31-11-26.31-25.84C370.73,192.2,381.78,181.08,397.06,181.08Zm0,42.9c10.08,0,17-7.26,17-16.79,0-9.71-6.89-17.06-17-17.06s-16.79,7.35-16.79,17.06c0,9.53,6.79,16.79,16.79,16.79Z"/><path class="cls-2" d="M307.32,100C306.91,96.38,300,93,300,93c-2.91-2-3.43-6.92-3-8.78s6.4-15.63,6.4-15.63c4.91-4.84,13.47-15.12,14.44-20.85.46-2.69-1.34-16.6,2.31-21.22,2.4-3,9.53-6.55,11-7.74s2.68-4.69,2-6.33-11.69-1.71-11.69-1.71-.92-4.6-7.52-5a12.73,12.73,0,0,0-4.34.55c.76-.38,2-.93,2.89-1.32-.23-1.52-.8-4.88-1.38-5s-2,2.25-2.67,3.07l.12,1.46-.47-1.22-.7-1.79h0c-.27-.74-.58-1.43-.89-1.5-.67-.14-16.22,21.67-18.16,24.5s-3.95,7.59-14.44,10.87c-7.41,2.31-22.79,2.69-34.6,6.46h0c-6.08.61-22.73,14.41-35.46,13.91-8.55-.33-15.18-2.68-16.87-6.5,0,0,1.78,17.62,10.92,18.61,0,0,5.75,1,11.31-4,0,0-1.59,3.14-3.57,4,0,0,7.7-2,12.39-5.51a37.15,37.15,0,0,1,7.45-10.74c.22-.22.36-.34.36-.34l-.36.34a17.48,17.48,0,0,0-5.06,10.55,15.86,15.86,0,0,0,.08,3.58c0,3.8,4.12,8.87,4.12,11.17,0,3.06-7.14,8.64-7.59,10.13a34.92,34.92,0,0,0,.29,12.69h-25.2c-24.22,0-33.55,24.23-33.55,24.23l-10.41,29h-4.48a6.37,6.37,0,0,0-.09,12.73h2.61a6.37,6.37,0,0,1,0,12.74H82.52a6.37,6.37,0,0,0,0,12.74h65.75a6.38,6.38,0,0,1,0,12.75H47.15a6.37,6.37,0,0,0,0,12.74h78.08L119.38,233h48.45L183,190.57h.74c34,0,46.87-36.33,46.87-36.33H196.08l6.52-18.17h37.9c24.23,0,35.7-36.34,35.7-36.34H228.78c-1.05-2-2.14-4-2.14-5.54,0-7.9,21.29-13,20.62-25.76-1.74-7.19,1.07-11.06,1.07-11.06-1.79,4,0,8.44.9,10.24h0c6,0,17.87,6.55,25.24,6.55a34,34,0,0,0,10.78-1.66c.29-1.69.35-6.1-6.12-8.94,0,0,7.83.07,7.74,8.32,0,0-.9,13.4.29,23.15a13.94,13.94,0,0,0,1.38,4.73h-.23a68.91,68.91,0,0,1-23.58,36.35h25.88l-22.14,60.56H216.28c-24.23,0-36.34,36.33-36.34,36.33h75.25c24.22,0,47.63,2.28,61.49-36.33l17.38-48.45C344,120.41,329.63,101.92,307.32,100Z"/><path class="cls-2" d="M22.49,204H6.38a6.37,6.37,0,0,0,0,12.74H22.49a6.37,6.37,0,0,0,0-12.74Z"/><path class="cls-2" d="M71.59,165.74H123A6.37,6.37,0,0,0,123,153H42.06a6.37,6.37,0,0,0,0,12.74Z"/><path class="cls-2" d="M75.62,140.25h69.45a6.37,6.37,0,1,0,0-12.74H75.62a6.37,6.37,0,0,0,0,12.74Z"/></svg>