<?xml version="1.0" encoding="utf-8"?>
<!-- Generator: Adobe Illustrator 25.2.0, SVG Export Plug-In . SVG Version: 6.00 Build 0)  -->
<svg version="1.1" id="Layer_1" xmlns="http://www.w3.org/2000/svg" xmlns:xlink="http://www.w3.org/1999/xlink" x="0px" y="0px"
	 viewBox="0 0 1000 1000" style="enable-background:new 0 0 1000 1000;" xml:space="preserve">
<style type="text/css">
	.st0{fill:#404041;}
	.st1{fill:#EC1C24;}
	.st2{font-family:'Nunito-Regular';}
	.st3{font-size:200px;}
</style>
<g>
	<g>
		<path class="st0" d="M772.9,650c10,0,15.7,5.5,15.7,15.5c0,10.2-5.8,15.5-15.7,15.5s-15.5-5.3-15.5-15.5
			C757.4,655.5,762.9,650,772.9,650z"/>
		<path class="st0" d="M832.9,517.4c8.2,0,13.7,3.3,13.7,12.4c0,9.3-5.5,12.6-13.7,12.6c-8.4,0-14.2-3.3-14.2-12.6
			C818.8,520.7,824.5,517.4,832.9,517.4z M821.2,562.7h23v115.6h-23V562.7z"/>
		<path class="st0" d="M934.6,559.6c36.2,0,61.9,26.1,61.9,61.2c0,34.7-25.7,60.6-61.9,60.6c-35.8,0-61.7-25.9-61.7-60.6
			C872.9,585.7,898.8,559.6,934.6,559.6z M934.6,660.2c23.7,0,39.8-17,39.8-39.4c0-22.8-16.1-40-39.8-40c-23.4,0-39.4,17.2-39.4,40
			C895.2,643.2,911.1,660.2,934.6,660.2z"/>
	</g>
	<g>
		<path class="st1" d="M724.2,369.4c-1-8.4-17.2-16.2-17.2-16.2c-6.8-4.7-8-16.2-7.2-20.6c0.9-4.4,15-36.7,15-36.7
			c11.5-11.4,31.6-35.4,33.9-48.9c1.1-6.3-3.1-38.9,5.4-49.8c5.6-7.1,22.3-15.4,25.8-18.2c3.5-2.8,6.3-11,4.7-14.8s-27.4-4-27.4-4
			s-2.2-10.8-17.6-11.8c-6-0.2-10.2,1.3-10.2,1.3c1.8-0.9,4.7-2.2,6.8-3.1c-0.5-3.6-1.9-11.4-3.2-11.7c-1.4-0.3-4.7,5.3-6.3,7.2
			l0.3,3.4l-1.1-2.9l-1.6-4.2v-0.1l0,0c-0.6-1.7-1.4-3.4-2.1-3.5c-1.6-0.3-38.1,50.8-42.6,57.4s-9.2,17.8-33.9,25.5
			c-17.4,5.4-53.4,6.3-81.1,15.2l0,0c-14.2,1.4-53.3,33.8-83.1,32.6c-20-0.8-35.6-6.3-39.6-15.2c0,0,4.2,41.3,25.6,43.6
			c0,0,13.5,2.3,26.5-9.3c0,0-3.7,7.4-8.4,9.5c0,0,18.1-4.6,29.1-12.9c3.4-7.1,9.2-17.4,17.5-25.2c0.5-0.5,0.9-0.8,0.9-0.8
			c-0.3,0.3-0.6,0.5-0.9,0.8c-2.7,2.6-10.7,11.5-11.9,24.7c-0.2,2.6-0.2,5.4,0.2,8.4c0,8.9,9.7,20.8,9.7,26.2
			c0,7.2-16.8,20.2-17.8,23.7c-0.6,1.9-2.4,16.9,0.7,29.8H454c-56.8,0-78.7,56.8-78.7,56.8l-24.4,68h-10.5
			c-8.2,0-14.9,6.7-14.9,14.9s6.6,14.8,14.8,14.9l0,0h0.2h5.9c8.2,0,14.9,6.7,14.9,14.9c0,8.2-6.7,14.9-14.9,14.9H197
			c-8.2,0-14.9,6.7-14.9,14.9c0,8.2,6.7,14.9,14.9,14.9h154.1c8.2,0,14.9,6.7,14.9,14.9c0,8.2-6.7,14.9-14.9,14.9h-32.4H146.5h-32.4
			c-8.2,0-14.9,6.7-14.9,14.9c0,8.3,6.7,14.9,14.9,14.9h183.1l-13.7,38.2h113.6l35.7-99.4h1.7c79.8,0,109.9-85.2,109.9-85.2h-81
			l15.3-42.6h88.9c56.8,0,83.7-85.2,83.7-85.2H540c-2.5-4.7-5-9.4-5-13c0-18.5,49.9-30.6,48.4-60.4c-4.1-16.9,2.5-25.9,2.5-25.9
			c-4.2,9.4,0,19.8,2.1,24h0.1c14,0,41.9,15.4,59.2,15.4c11.4,0,20.4-2.4,25.2-4c0.7-4,0.8-14.3-14.4-21c0,0,18.4,0.2,18.2,19.5
			c0,0-2.1,31.4,0.7,54.3c0.5,4.5,1.7,8.1,3.2,11.1h-0.5c-13.7,55.1-55.3,85.2-55.3,85.2H685l-51.9,142l0,0H510.7
			c-56.8,0-85.2,85.2-85.2,85.2h176.4c56.8,0,111.7,5.3,144.2-85.2L786.9,482C810.2,417.3,776.5,374,724.2,369.4z"/>
		<path class="st1" d="M56.2,613.2H18.5c-8.2,0-14.9,6.7-14.9,14.9c0,8.2,6.7,14.9,14.9,14.9h37.8c8.2,0,14.9-6.7,14.9-14.9
			C71.2,619.9,64.5,613.2,56.2,613.2z"/>
		<path class="st1" d="M171.4,523.6h120.5c8.2,0,14.9-6.7,14.9-14.9c0-8.2-6.7-14.9-14.9-14.9H102.1c-8.2,0-14.9,6.7-14.9,14.9
			c0,8.2,6.7,14.9,14.9,14.9H171.4z"/>
		<path class="st1" d="M180.8,463.9h162.9c8.2,0,14.9-6.7,14.9-14.9s-6.7-14.9-14.9-14.9H180.8c-8.2,0-14.9,6.7-14.9,14.9
			C165.9,457.2,172.6,463.9,180.8,463.9z"/>
	</g>
</g>
<text transform="matrix(1 0 0 1 132.002 850.4004)" class="st1 st2 st3">Webinar</text>
</svg>
